<?xml version="1.0" standalone="no"?>
<!DOCTYPE svg PUBLIC "-//W3C//DTD SVG 20010904//EN"
 "http://www.w3.org/TR/2001/REC-SVG-20010904/DTD/svg10.dtd">
<svg version="1.0" xmlns="http://www.w3.org/2000/svg"
 width="2560.000000pt" height="2560.000000pt" viewBox="0 0 2560.000000 2560.000000"
 preserveAspectRatio="xMidYMid meet">
<metadata>
Created by potrace 1.14, written by Peter Selinger 2001-2017
</metadata>
<g transform="translate(0.000000,2560.000000) scale(0.100000,-0.100000)"
fill="#000000" stroke="none">
<path d="M2457 20235 l-2457 -2456 97 -117 c112 -136 179 -216 210 -252 11
-14 49 -59 83 -100 34 -41 69 -84 79 -95 9 -11 59 -72 111 -135 52 -63 97
-117 100 -120 3 -3 25 -30 50 -60 25 -30 47 -57 50 -60 3 -3 23 -27 45 -55 22
-27 47 -57 55 -66 8 -9 22 -25 30 -35 8 -10 40 -49 70 -85 30 -36 71 -85 90
-109 19 -24 40 -48 45 -54 6 -6 30 -36 55 -66 25 -30 47 -57 50 -60 3 -3 35
-41 70 -85 36 -44 68 -82 71 -85 3 -3 115 -138 250 -300 296 -357 637 -769
689 -830 84 -100 359 -432 585 -705 132 -160 250 -301 262 -315 28 -33 336
-404 423 -510 25 -30 49 -60 55 -66 30 -33 64 -74 95 -114 19 -25 39 -50 45
-56 14 -15 184 -219 296 -355 20 -24 160 -192 311 -374 151 -181 388 -467 527
-635 139 -168 263 -316 275 -330 12 -14 53 -63 92 -110 293 -355 469 -566 474
-570 4 -3 24 -27 46 -55 22 -27 48 -61 59 -74 11 -13 36 -42 55 -65 19 -23 54
-64 76 -92 23 -27 101 -121 174 -209 73 -88 142 -171 154 -185 18 -22 50 -60
131 -159 11 -13 27 -32 35 -41 8 -8 28 -34 44 -55 17 -22 39 -49 50 -60 12
-11 39 -43 61 -70 21 -28 42 -52 45 -55 3 -3 23 -27 45 -55 22 -27 49 -61 61
-75 18 -21 139 -166 196 -235 9 -11 80 -96 157 -190 78 -93 170 -204 204 -245
34 -41 64 -77 67 -80 3 -3 33 -39 66 -80 32 -41 64 -79 70 -85 6 -5 30 -35 54
-65 24 -30 48 -59 54 -65 6 -5 29 -32 52 -60 77 -94 538 -650 543 -655 3 -3
35 -41 71 -85 35 -44 67 -82 70 -85 3 -3 25 -30 50 -60 25 -30 49 -60 55 -66
5 -6 26 -30 45 -54 45 -56 146 -178 173 -210 12 -14 110 -131 217 -260 107
-129 202 -244 212 -255 9 -11 78 -94 153 -185 76 -91 154 -185 175 -210 21
-25 61 -74 91 -110 29 -36 55 -67 58 -70 4 -3 24 -27 46 -55 21 -27 42 -52 45
-55 3 -3 25 -30 50 -60 25 -30 55 -66 67 -80 11 -14 137 -164 278 -335 141
-170 274 -330 295 -355 55 -65 199 -240 240 -290 19 -24 40 -48 45 -54 6 -6
65 -76 130 -156 66 -80 129 -156 141 -170 12 -14 93 -110 179 -215 86 -104
167 -201 178 -215 12 -14 87 -104 167 -200 80 -96 152 -184 162 -195 9 -11 55
-67 103 -125 48 -58 106 -127 129 -154 22 -27 50 -60 61 -74 31 -39 332 -402
378 -456 l41 -48 36 39 c32 35 100 112 216 242 23 25 83 93 135 151 52 58 123
139 159 179 36 41 72 81 81 90 14 15 211 236 275 310 16 19 34 39 39 45 28 29
127 139 185 205 36 41 70 79 75 85 6 7 30 34 55 62 25 27 79 87 120 133 41 46
86 97 100 114 14 16 36 42 50 56 14 14 97 107 185 206 87 99 162 182 165 185
3 3 37 41 75 85 39 44 79 89 90 101 11 11 36 39 55 61 19 22 65 73 101 114 72
80 237 265 280 314 212 239 309 348 343 385 23 25 77 86 121 135 44 50 82 92
85 95 3 3 55 61 115 130 61 69 127 143 147 165 20 22 46 51 58 65 11 14 33 39
49 55 15 17 49 55 77 85 135 152 190 214 199 224 6 6 100 112 210 236 110 124
202 227 205 230 3 3 61 68 130 145 68 77 129 145 135 151 5 6 37 42 70 79 33
38 81 92 106 119 25 28 86 96 135 151 49 55 103 116 120 135 17 19 53 60 80
90 94 107 189 214 212 239 13 14 49 55 80 90 57 63 71 79 141 156 45 50 168
189 207 234 16 18 43 48 59 66 17 17 59 65 95 106 36 41 69 79 75 85 5 6 39
44 75 84 36 41 75 84 86 96 12 12 54 60 94 106 40 46 96 108 124 139 28 31 62
69 76 85 22 25 474 532 565 633 16 19 35 39 40 45 124 139 171 192 175 196 3
3 59 66 125 140 66 74 124 140 130 146 5 6 39 44 75 85 36 40 83 94 106 119
22 25 52 58 65 73 13 16 40 46 59 66 19 21 62 68 95 106 33 38 65 73 70 79 6
6 84 94 175 196 91 102 169 190 175 196 5 6 40 44 76 85 36 41 108 121 160
180 52 58 121 136 154 173 33 38 65 74 71 80 5 6 70 79 144 161 170 192 180
202 210 235 24 27 130 145 160 180 8 9 46 51 83 92 37 42 77 87 88 99 20 24
135 152 174 195 11 12 33 37 49 55 45 51 336 378 377 424 20 22 62 69 94 105
32 36 88 99 125 140 37 41 109 122 160 180 51 58 112 125 134 151 23 25 68 76
101 113 33 38 74 83 90 101 17 17 55 60 85 94 30 35 64 73 75 86 11 12 50 55
87 96 36 41 76 85 88 99 32 38 69 79 125 140 53 59 177 199 208 234 32 36 141
159 157 176 8 9 44 49 80 90 36 41 72 81 80 90 14 15 44 49 246 275 49 55 91
102 94 105 3 3 37 41 75 85 39 44 79 89 90 101 29 31 70 77 155 174 41 47 97
110 125 140 68 76 117 130 205 230 41 47 77 87 80 90 5 5 132 147 196 220 17
19 76 85 130 145 55 61 131 146 169 190 39 43 100 113 138 155 37 41 66 78 65
82 -2 3 -82 88 -178 188 -96 100 -193 201 -214 224 -21 22 -123 129 -226 236
-103 107 -211 220 -239 250 -29 30 -130 136 -224 234 -95 98 -194 202 -221
230 -26 28 -94 98 -150 156 -93 97 -408 426 -534 559 -30 31 -100 103 -155
162 -233 242 -488 507 -527 549 -23 25 -124 130 -224 234 -99 103 -207 216
-239 250 -33 33 -134 140 -226 236 -93 96 -192 200 -220 230 -29 30 -134 140
-234 244 -100 104 -198 206 -217 226 -62 65 -381 397 -516 538 l-131 136
-1254 2 c-690 2 -2908 5 -4929 8 -2021 4 -5057 9 -6746 12 l-3071 5 -2456
-2456z"/>
</g>
</svg>
